<svg xmlns="http://www.w3.org/2000/svg" xmlns:xlink="http://www.w3.org/1999/xlink" version="1.1" x="0px" y="0px" viewBox="0 0 128 160" style="enable-background:new 0 0 128 128;" xml:space="preserve"><g><rect x="35" y="49" width="8" height="40"/><rect x="35" y="31" width="8" height="8"/><path d="M63,74v-5c0-6.1,4.9-11,11-11s11,4.9,11,11v20h8V69c0-10.5-8.5-19-19-19c-4.1,0-7.9,1.3-11,3.5V49h-8v20v5v15h8V74z"/><path d="M127,1H1v126h126V1z M119,119H9V9h110V119z"/></g><text x="0" y="143" fill="#000000" font-size="5px" font-weight="bold" font-family="'Helvetica Neue', Helvetica, Arial-Unicode, Arial, Sans-serif">Created by Kokota</text><text x="0" y="148" fill="#000000" font-size="5px" font-weight="bold" font-family="'Helvetica Neue', Helvetica, Arial-Unicode, Arial, Sans-serif">from the Noun Project</text></svg>